<?xml version="1.0" encoding="UTF-8"?>
<svg id="Capa_1" data-name="Capa 1" xmlns="http://www.w3.org/2000/svg" version="1.1" viewBox="0 0 596.2 168.6">
  <defs>
    <style>
      .cls-1 {
        fill: #000;
      }

      .cls-1, .cls-2 {
        stroke-width: 0px;
      }

      .cls-2 {
        fill: #fff;
      }
    </style>
  </defs>
  <rect class="cls-1" width="600" height="172"/>
  <g>
    <path class="cls-2" d="M241.2,51.5h29.7c18.8,0,34.3,8.2,34.3,28.8s-15.5,29-34.2,29h-29.8v-57.9h0ZM271,93.4c9.3,0,13.8-5.6,13.8-13.1s-4.2-12.8-13.7-12.8h-9.6v25.9h9.6Z"/>
    <path class="cls-2" d="M308.6,88.4c0-13,10.4-21.9,25.2-21.9s24,8.8,24,24v2.9h-30.8c1.4,2.9,4.8,4.9,10.4,4.9s8.2-1.3,10.5-2.8l6.1,10c-4.4,3.2-11.5,4.9-19.1,4.9-14.3,0-26.2-7.3-26.2-22h0ZM340.6,83.3c-.6-2.2-2.3-4.9-6.9-4.9s-6.3,2.4-7.2,4.9h14.1Z"/>
    <path class="cls-2" d="M359.8,103.7l6.3-10.5c4.1,2.9,11.5,5.5,17.4,5.5s4.7-.8,4.7-1.9-2.7-1.9-7-2.3c-7.9-.9-19.8-2.1-19.8-13.5s7.9-14.5,20.8-14.5,15.6,2.3,20.7,5.6l-5.6,10c-3.5-2.5-9.6-4.5-14.9-4.5s-4.2.5-4.2,1.9,2.2,1.6,6.3,2.2c7.8.9,20.2,2.3,20.2,14.2s-7.9,14.6-22.1,14.6-18.1-2.8-23-6.7h0Z"/>
    <path class="cls-2" d="M419.5,45.6c5.6,0,9.9,3.8,9.9,8.9s-4.2,9-9.9,9-9.9-3.9-9.9-9,4.2-8.9,9.9-8.9ZM410.6,67.5h17.9v41.9h-17.9v-41.9Z"/>
    <path class="cls-2" d="M435.5,119.8l7.1-11.3c3.6,3.3,9.4,4.8,14.3,4.8s10.4-2.2,10.4-8.9v-1.8c-4,4.1-8.4,5.8-13.4,5.8-10,0-19.6-6.8-19.6-21.1s9.4-20.9,19.6-20.9,9.5,1.6,13.4,5.6v-4.6h17.9v36.9c0,18.7-17.3,21.9-28.3,21.9s-15.4-2.1-21.4-6.6h0ZM460.2,94.4c2.6,0,5.4-1.1,7.1-3v-7.8c-1.7-2-4.5-3.1-7.1-3.1-4.2,0-7.8,2.2-7.8,7s3.6,7,7.8,7h0Z"/>
    <path class="cls-2" d="M518.3,81.4c-3.1,0-5.3,1.5-6.8,3.1v24.9h-17.9v-41.9h17.9v5.5c3.1-3.3,8.2-6.5,15.4-6.5s15,5.8,15,15.9v27.1h-17.8v-22.4c0-3.9-2.1-5.6-5.8-5.6h0Z"/>
    <g>
      <path class="cls-2" d="M59.5,70.7c4.6-15,19.9-23.2,37.4-23.2s29.8,8.8,34,17.8l-19.1,9c-2.1-5.2-7.2-9.3-14.9-9.3s-16.3,6.3-16.3,15.5,6.5,15.4,16.3,15.4,12.8-3.9,14.9-8.9l19,8.9c-4.2,8.5-15.5,17.6-33.9,17.6s-38.8-11.9-38.8-33,.5-6.8,1.4-9.8"/>
      <path class="cls-2" d="M132.9,103.1l9.5-14.6c5.4,4.6,15,8.5,24.4,8.5s7.7-1.3,7.7-3.4-3.9-3.3-10.5-4.4c-11.6-1.7-28.8-4.3-28.8-20.7s10.9-20.9,30.3-20.9,22.1,3,30.2,8.9l-9.6,14.1c-6.5-4.5-15.7-6.8-22.3-6.8s-5.5,1.2-5.5,3c0,2.6,4,3.4,10.9,4.5,11.6,1.9,28.2,4.8,28.2,19.9s-11.9,22.4-30.8,22.4-26.4-4.2-33.7-10.3h0Z"/>
    </g>
  </g>
</svg>